HIERARCHY
ROOT SimulationBone
{
	OFFSET 0.000000 0.000000 0.000000
	CHANNELS 6 Xposition Yposition Zposition Zrotation Yrotation Xrotation 
	JOINT Hips
	{
		OFFSET 0.000000 0.000000 0.000000
		CHANNELS 6 Xposition Yposition Zposition Zrotation Yrotation Xrotation 
		JOINT LeftUpLeg
		{
			OFFSET 0.103457 1.857818 10.548502
			CHANNELS 3 Zrotation Yrotation Xrotation
			JOINT LeftLeg
			{
				OFFSET 43.500000 -0.000011 -0.000004
				CHANNELS 3 Zrotation Yrotation Xrotation
				JOINT LeftFoot
				{
					OFFSET 42.372192 -0.000004 -0.000008
					CHANNELS 3 Zrotation Yrotation Xrotation
					JOINT LeftToe
					{
						OFFSET 17.300014 0.000006 0.000001
						CHANNELS 3 Zrotation Yrotation Xrotation
						End Site
						{
							OFFSET 0.000000 0.000000 0.000000
						}
					}
				}
			}
		}
		JOINT RightUpLeg
		{
			OFFSET 0.103457 1.857817 -10.548505
			CHANNELS 3 Zrotation Yrotation Xrotation
			JOINT RightLeg
			{
				OFFSET 43.500046 -0.000004 0.000011
				CHANNELS 3 Zrotation Yrotation Xrotation
				JOINT RightFoot
				{
					OFFSET 42.372257 0.000000 0.000015
					CHANNELS 3 Zrotation Yrotation Xrotation
					JOINT RightToe
					{
						OFFSET 17.300003 -0.000000 0.000002
						CHANNELS 3 Zrotation Yrotation Xrotation
						End Site
						{
							OFFSET 0.000000 0.000000 0.000000
						}
					}
				}
			}
		}
		JOINT Spine
		{
			OFFSET 6.901961 -2.603721 -0.000001
			CHANNELS 3 Zrotation Yrotation Xrotation
			JOINT Spine1
			{
				OFFSET 12.588108 0.000002 -0.000001
				CHANNELS 3 Zrotation Yrotation Xrotation
				JOINT Spine2
				{
					OFFSET 12.343199 -0.000020 0.000006
					CHANNELS 3 Zrotation Yrotation Xrotation
					JOINT Neck
					{
						OFFSET 25.832905 0.000017 0.000000
						CHANNELS 3 Zrotation Yrotation Xrotation
						JOINT Head
						{
							OFFSET 11.766604 -0.000006 0.000004
							CHANNELS 3 Zrotation Yrotation Xrotation
							End Site
							{
								OFFSET 0.000000 0.000000 0.000000
							}
						}
					}
					JOINT LeftShoulder
					{
						OFFSET 19.745903 -1.480350 6.000100
						CHANNELS 3 Zrotation Yrotation Xrotation
						JOINT LeftArm
						{
							OFFSET 11.284130 -0.000016 -0.000016
							CHANNELS 3 Zrotation Yrotation Xrotation
							JOINT LeftForeArm
							{
								OFFSET 33.000046 0.000004 0.000031
								CHANNELS 3 Zrotation Yrotation Xrotation
								JOINT LeftHand
								{
									OFFSET 25.199999 0.000027 0.000001
									CHANNELS 3 Zrotation Yrotation Xrotation
									End Site
									{
										OFFSET 0.000000 0.000000 0.000000
									}
								}
							}
						}
					}
					JOINT RightShoulder
					{
						OFFSET 19.746094 -1.480375 -6.000080
						CHANNELS 3 Zrotation Yrotation Xrotation
						JOINT RightArm
						{
							OFFSET 11.284131 -0.000016 -0.000017
							CHANNELS 3 Zrotation Yrotation Xrotation
							JOINT RightForeArm
							{
								OFFSET 33.000095 0.000009 0.000020
								CHANNELS 3 Zrotation Yrotation Xrotation
								JOINT RightHand
								{
									OFFSET 25.199789 0.000132 0.000423
									CHANNELS 3 Zrotation Yrotation Xrotation
									End Site
									{
										OFFSET 0.000000 0.000000 0.000000
									}
								}
							}
						}
					}
				}
			}
		}
	}
}
MOTION
Frames: 5
Frame Time: 0.016667
-339.122757 0.000000 443.115057 0.000000 32.320251 0.000000 -6.749558 88.628036 1.078109 83.843110 0.672217 -177.826765 179.430272 1.933104 -174.514188 -22.844042 -4.708010 -2.133041 93.465626 2.249583 5.650822 21.454551 0.003095 0.000000 135.961991 4.321303 -176.642462 -66.981048 -1.184719 6.166783 74.965259 -3.323124 3.680329 21.454558 -0.003108 -0.000018 9.543958 -0.767667 -0.791201 9.086381 -1.470888 -1.640327 8.768285 -1.480634 -1.631412 5.570762 -6.607343 1.696805 -22.784890 11.302762 -3.872083 167.785604 -78.980982 10.871269 -35.423836 57.708560 -14.432824 -83.620325 -7.553002 2.552248 -7.309421 -7.750618 41.905303 -160.367554 72.745404 21.560898 15.197604 -59.580203 -40.043701 -50.803076 14.527701 -1.775122 0.016877 17.137382 -21.965521 
-337.302188 0.000000 442.066113 0.000000 32.932313 0.000000 -7.046617 88.300338 1.286065 83.445397 1.209489 -177.589598 -179.829482 0.953149 -173.896046 -22.870466 -4.839819 -1.980130 94.257650 2.088328 5.458367 21.454551 0.003088 -0.000001 135.057443 3.904921 -177.086456 -63.790778 -0.938562 4.715829 75.387612 -2.351704 3.524943 21.454557 -0.003103 -0.000018 9.636897 -0.609163 -1.019264 9.271762 -1.134753 -2.084116 8.953802 -1.147185 -2.077225 5.205467 -5.952780 2.016205 -23.192260 10.644665 -3.237673 164.618637 -79.569502 14.064161 -35.613336 57.984371 -17.239465 -88.603895 -5.441244 2.637941 -7.726234 -7.483480 41.793427 -158.716507 72.588267 23.258899 18.081586 -58.528047 -41.732997 -53.280072 14.460004 -1.853705 -0.741619 16.525318 -22.788434 
-335.476184 0.000000 440.986528 0.000000 33.487449 0.000000 -7.298173 87.906281 1.494336 83.096349 1.763827 -177.468416 -179.050950 0.008197 -173.394051 -23.046356 -4.896734 -1.911595 95.105745 1.974919 5.206594 21.454551 0.003086 -0.000001 134.412221 3.306904 -177.759894 -60.575676 -0.691758 3.373522 76.117430 -1.481596 3.318318 21.454557 -0.003101 -0.000017 9.731116 -0.445533 -1.230954 9.458227 -0.789014 -2.494215 9.140417 -0.803923 -2.489403 4.968170 -5.200844 2.347484 -23.566757 9.859750 -2.502501 161.455384 -80.046825 17.251768 -35.585148 58.271525 -19.476965 -93.248105 -3.767586 2.712815 -7.993935 -7.318431 41.677414 -157.402624 72.539487 24.609094 20.458792 -57.568705 -42.790687 -55.742064 14.325786 -1.930111 -1.337811 15.569228 -23.407268 
-333.647121 0.000000 439.877385 0.000000 33.992587 0.000000 -7.495454 87.464995 1.695725 82.799887 2.363263 -177.530533 -178.150381 -0.942505 -173.027700 -23.242060 -4.914919 -1.907900 95.932061 1.905896 4.943255 21.454550 0.003091 -0.000001 134.023036 2.468628 -178.747704 -57.516948 -0.442551 2.425327 77.179227 -0.879782 3.191945 21.454558 -0.003109 -0.000016 9.820758 -0.275863 -1.408265 9.634125 -0.433568 -2.834569 9.316448 -0.450532 -2.831895 4.843256 -4.386315 2.683268 -23.846352 9.026684 -1.709717 158.730781 -80.383882 19.996582 -35.291354 58.509197 -20.597383 -97.529340 -2.961577 2.832292 -8.175916 -7.273999 41.708741 -156.555117 72.618846 25.477750 22.323806 -56.764624 -43.240340 -58.022939 14.123174 -1.998574 -1.739608 14.353333 -23.798025 
-331.815862 0.000000 438.742086 0.000000 34.454355 0.000000 -7.639437 86.975723 1.884503 82.553872 3.003733 -177.784679 -177.132596 -1.865099 -172.793951 -23.476765 -4.863935 -1.965092 96.686634 1.876094 4.623209 21.454550 0.003096 -0.000000 133.855027 1.449798 179.999759 -54.813626 -0.165506 1.962087 78.208117 -0.574438 3.252627 21.454560 -0.003117 -0.000016 9.901662 -0.103589 -1.544693 9.791529 -0.076142 -3.092544 9.473948 -0.094665 -3.092020 4.799018 -3.570853 3.015921 -23.995759 8.229503 -0.915255 156.919973 -80.595139 21.819530 -34.683990 58.737514 -20.909336 -101.373899 -2.612768 2.993097 -8.421430 -7.395193 41.879400 -156.160881 72.810188 25.878492 23.657899 -56.142886 -43.166197 -60.053085 13.872714 -2.056393 -1.995759 13.035437 -24.090670 
